<?xml version="1.0" encoding="iso-8859-1"?>
<!-- Generator: Adobe Illustrator 19.0.0, SVG Export Plug-In . SVG Version: 6.00 Build 0)  -->
<svg xmlns="http://www.w3.org/2000/svg" xmlns:xlink="http://www.w3.org/1999/xlink" version="1.1" id="Layer_1" x="0px" y="0px" viewBox="0 0 490 490" style="enable-background:new 0 0 490 490;" xml:space="preserve" width="512" height="512">
<g>
	<path style="fill:#52B1E4;" d="M245.385,461.614c-57.859,0-112.256-22.532-153.169-63.445C51.303,357.256,28.77,302.86,28.77,245   S51.303,132.744,92.216,91.831s95.31-63.445,153.169-63.445S357.64,50.918,398.554,91.831S461.999,187.14,461.999,245   s-22.532,112.256-63.445,153.169C357.64,439.082,303.244,461.614,245.385,461.614z M245.385,68.386   C147.999,68.386,68.77,147.615,68.77,245s79.229,176.614,176.614,176.614S421.999,342.385,421.999,245   S342.77,68.386,245.385,68.386z"/>
	<path style="fill:#737B87;" d="M245.38,99.396c7.259,0,14.326,0.813,21.122,2.346V0h-43.004v101.915   C230.526,100.27,237.851,99.396,245.38,99.396z"/>
	<path style="fill:#737B87;" d="M245.38,390.604c-7.53,0-14.855-0.874-21.883-2.519V490h43.004V388.258   C259.707,389.79,252.639,390.604,245.38,390.604z"/>
	<path style="fill:#737B87;" d="M390.604,245.38c0,7.259-0.813,14.326-2.346,21.122H490v-43.004H388.085   C389.73,230.526,390.604,237.851,390.604,245.38z"/>
	<path style="fill:#737B87;" d="M99.396,245.38c0-7.53,0.874-14.855,2.519-21.883H0v43.004h101.742   C100.209,259.707,99.396,252.639,99.396,245.38z"/>
	<path style="fill:#737B87;" d="M266.122,151.745c-6.795-1.533-13.863-2.346-21.122-2.346c-7.53,0-14.855,0.874-21.883,2.52v71.579   h-71.289c-1.589,6.911-2.429,14.109-2.429,21.502s0.84,14.591,2.429,21.502h71.289v71.579c7.028,1.646,14.353,2.519,21.883,2.519   c7.259,0,14.326-0.813,21.122-2.346v-71.753h72.05c1.589-6.911,2.429-14.109,2.429-21.502s-0.84-14.591-2.429-21.502h-72.05   V151.745z"/>
</g>















</svg>
