<?xml version="1.0" encoding="iso-8859-1"?>
<!-- Generator: Adobe Illustrator 19.0.0, SVG Export Plug-In . SVG Version: 6.00 Build 0)  -->
<svg xmlns="http://www.w3.org/2000/svg" xmlns:xlink="http://www.w3.org/1999/xlink" version="1.1" id="Layer_1" x="0px" y="0px" viewBox="0 0 475.661 475.661" style="enable-background:new 0 0 475.661 475.661;" xml:space="preserve" width="512" height="512">
<g>
	<path style="fill:#EBF6FF;" d="M81.174,269.7l-23.295,23.295c-21.461,21.461-21.469,56.262,0,77.731l32.943,32.943   c0,0,134.995,133.711,232.025,36.681c36.276-36.276,87.35-87.35,87.35-87.35c71.612-71.612,38.766-185.366-24.296-248.428   l-92.423-92.423C285.38,4.049,274.76,0,264.14,0c-10.605,0-21.224,4.049-29.323,12.148c-16.197,16.197-16.732,42.999-0.535,59.196   l-12.469-12.469c-8.099-8.099-18.711-12.14-29.331-12.14c-10.612-0.008-21.224,4.049-29.323,12.148s-12.148,18.703-12.148,29.323   c0.008,10.612,4.049,21.224,12.148,29.323l-16.411-16.411c-8.099-8.099-18.718-12.148-29.331-12.156   c-10.605,0-21.224,4.049-29.323,12.148c-16.197,16.197-16.19,42.457,0.008,58.654l7.587,7.587   c-16.197-16.167-42.441-16.159-58.623,0.023c-8.091,8.091-12.148,18.703-12.148,29.323c0.008,10.628,4.057,21.232,12.148,29.323   l25.006,24.578L81.174,269.7z"/>
	<path style="fill:#A0BFDB;" d="M88.102,101.117c2.878-2.878,6.081-5.247,9.482-7.106c-3.359,6.159-5.049,12.997-5.049,19.841   c0.007,10.628,4.066,21.234,12.155,29.324l39.146,38.722l10.805,10.805c4.581,4.581,4.581,12.008,0,16.589l0,0   c-4.581,4.581-12.008,4.581-16.589,0l-10.805-10.805l-39.146-38.722c-8.089-8.089-12.141-18.703-12.148-29.331   C75.954,119.813,80.013,109.206,88.102,101.117z"/>
	<path style="fill:#A0BFDB;" d="M163.163,58.882c2.878-2.878,6.081-5.247,9.482-7.106c-3.359,6.159-5.049,12.997-5.049,19.841   c0.007,10.628,4.066,21.234,12.155,29.324l14.396,13.972l10.805,10.805c4.581,4.581,4.581,12.008,0,16.589l0,0   c-4.581,4.581-12.008,4.581-16.589,0l-10.805-10.805l-14.396-13.972c-8.089-8.089-12.141-18.703-12.148-29.331   C151.015,77.578,155.074,66.972,163.163,58.882z"/>
	<path style="fill:#A0BFDB;" d="M234.282,12.697c2.878-2.878,6.081-5.247,9.482-7.106c-3.359,6.159-5.049,12.997-5.049,19.841   c0.007,10.628,4.066,21.234,12.155,29.324l14.396,13.972l10.805,10.805c4.581,4.581,4.581,12.008,0,16.589v0   c-4.581,4.581-12.008,4.581-16.589,0l-10.805-10.805l-14.396-13.972c-8.089-8.089-12.141-18.703-12.148-29.331   C222.134,31.393,226.193,20.786,234.282,12.697z"/>
	<path style="fill:#A0BFDB;" d="M37.066,167.372c2.878-2.878,6.081-5.247,9.482-7.106c-3.359,6.159-5.049,12.997-5.049,19.841   c0.007,10.628,4.066,21.234,12.155,29.324l14.396,13.972l97.315,97.315c4.581,4.581,4.581,12.008,0,16.589h0   c-4.581,4.581-12.008,4.581-16.589,0l-97.315-97.315L37.066,226.02c-8.089-8.089-12.141-18.703-12.148-29.331   C24.917,186.068,28.976,175.462,37.066,167.372z"/>
	<path style="fill:#A0BFDB;" d="M343.266,419.926l-20.421,20.421C225.809,537.383,90.822,403.67,90.822,403.67l-32.944-32.944   c-21.468-21.468-21.468-56.272-0.007-77.732l20.421-20.421c-21.461,21.461-21.461,56.264,0.007,77.732l32.944,32.944   C111.243,383.248,246.237,516.955,343.266,419.926z"/>
	<g>
		<path style="fill:#A0BFDB;" d="M281.564,365.177c-1.919,0-3.839-0.732-5.303-2.197l-62.726-62.726    c-2.929-2.929-2.929-7.677,0-10.606c2.929-2.929,7.678-2.929,10.606,0l62.726,62.726c2.929,2.929,2.929,7.677,0,10.606    C285.402,364.444,283.483,365.177,281.564,365.177z"/>
		<path style="fill:#A0BFDB;" d="M318.153,328.587c-1.919,0-3.839-0.732-5.303-2.197l-62.726-62.726    c-2.929-2.929-2.929-7.678,0-10.606c2.929-2.929,7.678-2.929,10.606,0l62.726,62.726c2.929,2.929,2.929,7.677,0,10.606    C321.992,327.855,320.073,328.587,318.153,328.587z"/>
		<path style="fill:#A0BFDB;" d="M354.743,291.997c-1.919,0-3.839-0.732-5.303-2.197l-62.726-62.726    c-2.929-2.929-2.929-7.677,0-10.606c2.929-2.929,7.678-2.929,10.606,0l62.726,62.726c2.929,2.929,2.929,7.677,0,10.606    C358.582,291.265,356.663,291.997,354.743,291.997z"/>
	</g>
</g>















</svg>
